# xmcd
#
# Track frame offsets: 
#        150
#        16512
#        30737
#        47977
#        62572
#        79537
#        95212
#        111010
#        123772
#        137957
#        155392
#        167525
#        182812
#        197440
#        211832
#
# Disc length: 3055 seconds
#
# Revision: 6
# Processed by: cddbd v1.5.2PL0 Copyright (c) Steve Scherf et al.
# Submitted via: ExactAudioCopyFreeDBPlugin 1.0
#
DISCID=bc0bed0f
DTITLE=5 Chinese Brothers - Singer Songwriter Beggarman Thief
DYEAR=1993
DGENRE=Folk/Rock
TTITLE0=If I Ain't Falling
TTITLE1=Baltimore
TTITLE2=She's A Waitress (And I'm In Love)
TTITLE3=Stop Talking
TTITLE4=My Dad's Face
TTITLE5=These Dreams
TTITLE6=Alone Together
TTITLE7=Paul Cezanne
TTITLE8=Claudine
TTITLE9=Don't Regret
TTITLE10=Real Fast Car, The
TTITLE11=All I Need
TTITLE12=I Always Knew
TTITLE13=Williamsburg
TTITLE14=Jack Worships Janey
EXTD=
EXTT0=
EXTT1=
EXTT2=
EXTT3=
EXTT4=
EXTT5=
EXTT6=
EXTT7=
EXTT8=
EXTT9=
EXTT10=
EXTT11=
EXTT12=
EXTT13=
EXTT14=
PLAYORDER=
